<?xml version="1.0" encoding="UTF-8"?>
<svg width="1378px" height="209px" viewBox="0 0 1378 209" version="1.1" xmlns="http://www.w3.org/2000/svg" xmlns:xlink="http://www.w3.org/1999/xlink">
    <title>Group 2</title>
    <g id="Page-1" stroke="none" stroke-width="1" fill="none" fill-rule="evenodd">
        <g id="Group-2" transform="translate(0.000000, 0.074422)" fill-rule="nonzero">
            <g id="rubber-duck" transform="translate(0.000000, 37.925578)">
                <path d="M139.324087,79.011228 C137.828109,76.9468938 137.7007,74.2141592 138.916577,71.9737554 C142.697272,65.0083716 144.828966,57.0197904 144.788381,48.5312376 C144.659974,21.5500512 122.326093,-0.344381987 95.3100056,0.00410313463 C68.6362262,0.348269565 47.119362,22.0490261 47.119362,48.7681012 C47.119362,59.582435 50.6439083,69.5742243 56.6088577,77.6608066 C59.1879806,81.1576173 59.0083435,85.9992018 56.0955613,89.2242672 C51.6721643,94.1213303 42.1454106,97.29889 21.9661774,83.8169342 C19.7533145,82.3386131 17.1552299,81.5366655 14.4929417,81.5366655 L14.4929417,81.5366655 C7.85734718,81.5366655 2.24002882,86.3961892 1.26100667,92.9503007 C-2.31377143,116.875847 -2.76918473,170.09009 63.9114381,170.09009 L87.5579998,170.09009 C150.098653,170.09009 166.757332,116.870864 139.324087,79.011228 Z" id="Path" fill="#FFD740"></path>
                <g id="Group" fill="#FFB641">
                    <path d="M56.1053328,89.2248494 C54.7977466,90.6722767 53.0436514,91.969214 50.7006433,92.730301 C58.8419475,94.6843444 63.6167997,92.2921195 66.3880172,89.2248494 C69.3016386,85.9997807 69.4809742,81.1585235 66.9014028,77.6613771 C60.935749,69.5747866 57.4102571,59.5826549 57.4102571,48.7683101 C57.4102571,23.5760326 76.5426048,2.84862147 101.089956,0.272685931 C99.1971171,0.0730293337 97.274666,-0.0209853371 95.3262629,0.00393021169 C68.6478455,0.348096992 47.12724,22.0488756 47.12724,48.7679779 C47.12724,59.5823227 50.6523991,69.5741221 56.6183856,77.6610449 C59.1982897,81.1581913 59.0186214,85.9994485 56.1053328,89.2248494 Z" id="Path"></path>
                    <path d="M11.543928,92.9502222 C12.2549488,88.1940101 15.4094588,84.3321 19.6230137,82.5704046 C18.0040025,81.8986814 16.2655451,81.5372398 14.4951466,81.5372398 L14.4951466,81.5372398 C7.85839829,81.5372398 2.24010319,86.3967685 1.26091082,92.9508866 C-2.31382343,116.875793 -2.76931591,170.09009 63.9229012,170.09009 L74.2055857,170.09009 C7.51336856,170.09009 7.96886104,116.875793 11.543928,92.9502222 Z" id="Path"></path>
                    <path d="M21.8512337,114.390882 C18.9346179,117.266469 18.4318793,121.788475 20.6541103,125.227153 C27.143464,135.268784 43.395795,153.890997 74.6783796,153.890997 C93.7285456,153.890997 113.869698,141.994985 117.62044,122.299078 C120.718055,106.032214 111.216928,86.1479452 92.5567089,87.0030468 C78.8829511,87.629922 70.8850489,99.4325836 59.3297138,104.889421 C51.2120326,108.723093 42.4129427,111.08542 33.4817633,111.967762 C29.2309438,112.387672 25.2739153,111.016321 21.8512337,114.390882 Z" id="Path"></path>
                </g>
                <path d="M124.230079,36.7567568 C123.045139,36.7567568 121.971858,35.9814927 121.687973,34.8312156 L120.430962,29.7415227 C120.09903,28.3977532 120.969295,27.0510716 122.374169,26.733977 C123.779044,26.4172059 125.18764,27.2487704 125.519234,28.5922164 L126.776245,33.6819092 C127.108177,35.0256788 126.237913,36.3723604 124.833038,36.689455 C124.631375,36.7347543 124.429035,36.7567568 124.230079,36.7567568 Z" id="Path" fill="#38484A"></path>
                <path d="M137.054618,23.2569017 C137.054618,23.2569017 138.109844,38.4204415 131.104374,45.288567 C124.098903,52.1566924 135.774687,62.9275303 149.630215,52.7810073 C151.620559,51.3236108 153.63697,50.3975603 155.630284,49.8801101 C158.196416,49.2144389 160,46.9133738 160,44.2559826 L160,44.2559826 C160,41.7004934 158.33995,39.4265579 155.895905,38.7023262 C154.270831,38.2206078 152.206905,37.9330988 149.786288,38.2639493 C149.786288,38.2639493 158.165069,30.939581 156.094874,22.4648456 C155.426036,19.7254035 152.182818,18.5852927 149.879668,20.204475 C146.901741,22.2974352 142.279932,24.504208 137.054618,23.2569017 Z" id="Path" fill="#FFB641"></path>
            </g>
            <g id="POSTDUCK" transform="translate(216.000000, 50.925578)" fill="#FFD740">
                <path d="M74.2,102.2 L12.6,102.2 L12.6,68.4 L70,68.4 C76.6666667,68.4 81.4333333,67.4 84.3,65.4 C87.1666667,63.4 88.6,58.9333333 88.6,52 C88.6,45.2 87.1666667,40.8 84.3,38.8 C81.4333333,36.8 76.6666667,35.8 70,35.8 L12.6,35.8 L12.6,2 L74.2,2 C84.8666667,2 94.0666667,3.96666667 101.8,7.9 C109.533333,11.8333333 115.5,17.5 119.7,24.9 C123.9,32.3 126,41.3333333 126,52 C126,62.5333333 123.9,71.5666667 119.7,79.1 C115.5,86.6333333 109.533333,92.3666667 101.8,96.3 C94.0666667,100.233333 84.8666667,102.2 74.2,102.2 Z M37.6,136 L0,136 L0,2 L37.6,2 L37.6,136 Z" id="Shape"></path>
                <path d="M206.2,138 C190.733333,138 177.433333,135.166667 166.3,129.5 C155.166667,123.833333 146.666667,115.833333 140.8,105.5 C134.933333,95.1666667 132,83 132,69 C132,55 134.933333,42.8333333 140.8,32.5 C146.666667,22.1666667 155.166667,14.1666667 166.3,8.5 C177.433333,2.83333333 190.733333,0 206.2,0 C222.2,0 235.766667,2.83333333 246.9,8.5 C258.033333,14.1666667 266.533333,22.1666667 272.4,32.5 C278.266667,42.8333333 281.2,55 281.2,69 C281.2,83 278.266667,95.1666667 272.4,105.5 C266.533333,115.833333 258.033333,123.833333 246.9,129.5 C235.766667,135.166667 222.2,138 206.2,138 Z M206.2,102 C215.266667,102 222.333333,101.1 227.4,99.3 C232.466667,97.5 236.033333,94.2 238.1,89.4 C240.166667,84.6 241.2,77.8 241.2,69 C241.2,60.0666667 240.166667,53.2333333 238.1,48.5 C236.033333,43.7666667 232.466667,40.5 227.4,38.7 C222.333333,36.9 215.266667,36 206.2,36 C197.133333,36 190.133333,36.9 185.2,38.7 C180.266667,40.5 176.833333,43.7666667 174.9,48.5 C172.966667,53.2333333 172,60.0666667 172,69 C172,77.8 172.966667,84.6 174.9,89.4 C176.833333,94.2 180.266667,97.5 185.2,99.3 C190.133333,101.1 197.133333,102 206.2,102 Z" id="Shape"></path>
                <path d="M356.2,138 C342.6,138 330.866667,136.3 321,132.9 C311.133333,129.5 303.533333,124.233333 298.2,117.1 C292.866667,109.966667 290.2,100.733333 290.2,89.4 L290.2,88.2 L327.8,88.2 L327.8,92.4 C327.8,95.3333333 328.433333,97.6333333 329.7,99.3 C330.966667,100.966667 333.6,102.133333 337.6,102.8 C341.6,103.466667 347.8,103.8 356.2,103.8 C363.8,103.8 369.4,103.566667 373,103.1 C376.6,102.633333 378.9,101.833333 379.9,100.7 C380.9,99.5666667 381.4,98 381.4,96 C381.4,93.6 380.5,91.8 378.7,90.6 C376.9,89.4 373.266667,88.4666667 367.8,87.8 L325.8,82.2 C317.533333,81 310.6,78.7666667 305,75.5 C299.4,72.2333333 295.2,67.9333333 292.4,62.6 C289.6,57.2666667 288.2,51 288.2,43.8 C288.2,38.4666667 289.333333,33.2 291.6,28 C293.866667,22.8 297.533333,18.1 302.6,13.9 C307.666667,9.7 314.333333,6.33333333 322.6,3.8 C330.866667,1.26666667 341.066667,0 353.2,0 C367.466667,0 379.233333,1.96666667 388.5,5.9 C397.766667,9.83333333 404.7,15.4333333 409.3,22.7 C413.9,29.9666667 416.2,38.6 416.2,48.6 L416.2,49.8 L378.6,49.8 L378.6,46.8 C378.6,43.6 377.9,41.0666667 376.5,39.2 C375.1,37.3333333 372.3,36 368.1,35.2 C363.9,34.4 357.6,34 349.2,34 C342.8,34 337.933333,34.3 334.6,34.9 C331.266667,35.5 328.966667,36.4 327.7,37.6 C326.433333,38.8 325.8,40.4 325.8,42.4 C325.8,43.7333333 326.1,44.9 326.7,45.9 C327.3,46.9 328.3,47.6666667 329.7,48.2 C331.1,48.7333333 333,49.2 335.4,49.6 L377.4,55.8 C388.333333,57.4 396.8,60.1666667 402.8,64.1 C408.8,68.0333333 413,72.6666667 415.4,78 C417.8,83.3333333 419,88.8666667 419,94.6 C419,102.2 416.9,109.3 412.7,115.9 C408.5,122.5 401.8,127.833333 392.6,131.9 C383.4,135.966667 371.266667,138 356.2,138 Z" id="Path"></path>
                <path d="M510,136 L472.4,136 L472.4,2 L510,2 L510,136 Z M557.2,35.8 L425,35.8 L425,2 L557.2,2 L557.2,35.8 Z" id="Shape"></path>
                <path d="M636.2,136 L577.8,136 L577.8,102.2 L636.2,102.2 C644.2,102.2 650.533333,101.533333 655.2,100.2 C659.866667,98.8666667 663.2,95.8333333 665.2,91.1 C667.2,86.3666667 668.2,79 668.2,69 C668.2,58.8666667 667.2,51.4666667 665.2,46.8 C663.2,42.1333333 659.866667,39.1333333 655.2,37.8 C650.533333,36.4666667 644.2,35.8 636.2,35.8 L577.8,35.8 L577.8,2 L636.2,2 C651,2 663.8,4.63333333 674.6,9.9 C685.4,15.1666667 693.733333,22.8 699.6,32.8 C705.466667,42.8 708.4,54.8666667 708.4,69 C708.4,83.1333333 705.466667,95.2 699.6,105.2 C693.733333,115.2 685.4,122.833333 674.6,128.1 C663.8,133.366667 651,136 636.2,136 Z M606,136 L568.4,136 L568.4,2 L606,2 L606,136 Z" id="Shape"></path>
                <path d="M786,138 C770.4,138 757.566667,135.633333 747.5,130.9 C737.433333,126.166667 729.933333,119.433333 725,110.7 C720.066667,101.966667 717.6,91.6666667 717.6,79.8 L717.6,2 L755.2,2 L755.2,76.8 C755.2,83.2 756,88.2 757.6,91.8 C759.2,95.4 762.233333,97.9333333 766.7,99.4 C771.166667,100.866667 777.6,101.6 786,101.6 C794.533333,101.6 801,100.866667 805.4,99.4 C809.8,97.9333333 812.8,95.4 814.4,91.8 C816,88.2 816.8,83.2 816.8,76.8 L816.8,2 L854.4,2 L854.4,79.8 C854.4,91.6666667 851.933333,101.966667 847,110.7 C842.066667,119.433333 834.566667,126.166667 824.5,130.9 C814.433333,135.633333 801.6,138 786,138 Z" id="Path"></path>
                <path d="M937.6,138 C922.133333,138 908.866667,135.166667 897.8,129.5 C886.733333,123.833333 878.266667,115.833333 872.4,105.5 C866.533333,95.1666667 863.6,83 863.6,69 C863.6,55 866.533333,42.8333333 872.4,32.5 C878.266667,22.1666667 886.733333,14.1666667 897.8,8.5 C908.866667,2.83333333 922.133333,0 937.6,0 C952.666667,0 965.566667,2.26666667 976.3,6.8 C987.033333,11.3333333 995.266667,17.8666667 1001,26.4 C1006.73333,34.9333333 1009.6,45.2 1009.6,57.2 L1009.6,60.6 L967.6,60.6 L967.6,57.2 C967.6,49.6 965.466667,44.1666667 961.2,40.9 C956.933333,37.6333333 949.266667,36 938.2,36 C929.133333,36 922.1,36.9 917.1,38.7 C912.1,40.5 908.6,43.7666667 906.6,48.5 C904.6,53.2333333 903.6,60.0666667 903.6,69 C903.6,77.8 904.6,84.6 906.6,89.4 C908.6,94.2 912.1,97.5 917.1,99.3 C922.1,101.1 929.133333,102 938.2,102 C949.266667,102 956.933333,100.366667 961.2,97.1 C965.466667,93.8333333 967.6,88.4 967.6,80.8 L967.6,77.4 L1009.6,77.4 L1009.6,80.8 C1009.6,92.6666667 1006.73333,102.9 1001,111.5 C995.266667,120.1 987.033333,126.666667 976.3,131.2 C965.566667,135.733333 952.666667,138 937.6,138 Z" id="Path"></path>
                <path d="M1160.8,136 L1115.8,136 L1084.6,88.4 L1046.2,88.4 L1046.2,51.8 L1084.2,51.8 L1116.8,2 L1161.8,2 L1115.4,67.8 L1160.8,136 Z M1057.2,136 L1019.6,136 L1019.6,2 L1057.2,2 L1057.2,136 Z" id="Shape"></path>
            </g>
            <g id="graduate-cap" transform="translate(80.000000, 52.925578) scale(-1, 1) rotate(17.000000) translate(-80.000000, -52.925578) translate(20.000000, 15.925578)" fill="#133271">
                <path d="M120,53.7198802 C120,51.9324543 118.946209,50.4391617 117.446729,49.7000573 L117.446729,21.9723294 C117.786662,21.8441175 117.998175,21.5235875 117.994398,21.1653481 C117.994398,20.8071087 117.760222,20.4903497 117.431621,20.3734505 L60.1303319,0.195146188 C59.3975885,-0.0650487292 58.5968586,-0.0650487292 57.8603382,0.195146188 L0.56660308,20.3772215 C0.230447604,20.4941206 0.00382593424,20.8108797 6.6676626e-14,21.1691191 C-0.00372812142,21.5273584 0.211562465,21.8478884 0.543940914,21.9761004 L57.7583584,44.2095675 C58.5553113,44.5150137 59.4353588,44.5150137 60.2323117,44.2095675 L113.495958,23.4995605 L113.495958,49.6962864 C112.000255,50.4316198 110.946464,51.9362252 110.946464,53.7123384 C110.946464,55.5676413 112.079573,57.177833 113.699918,57.8679152 C112.079573,61.061902 110.946464,67.6157972 110.946464,69.4861838 C110.946464,71.9787757 112.974728,74 115.471344,74 C117.964182,74 119.992446,71.9787757 119.992446,69.4861838 C119.992446,67.6157972 118.855561,61.061902 117.238993,57.8679152 C118.863115,57.1853749 120,55.5751831 120,53.7198802 Z" id="Path"></path>
                <path d="M16.4331116,27.28033 C16.4368856,33.6195562 16.4406595,41.0801078 16.4406595,42.264975 C16.4406595,54.0687935 34.3781799,63.6785521 56.9349986,64.28033 C79.4880434,63.6785521 97.4255638,54.0800068 97.4255638,42.264975 C97.4255638,41.0875833 97.4255638,33.623294 97.4331116,27.28033 L58.161528,42.4219605 C57.3652274,42.7284561 56.4859001,42.7284561 55.6895995,42.4219605 L16.4331116,27.28033 Z" id="Path"></path>
            </g>
        </g>
    </g>
</svg>