<?xml version="1.0" encoding="UTF-8"?>
<svg width="1168px" height="598px" viewBox="0 0 1168 598" version="1.1" xmlns="http://www.w3.org/2000/svg" xmlns:xlink="http://www.w3.org/1999/xlink">
    <title>Group 3</title>
    <g id="Page-1" stroke="none" stroke-width="1" fill="none" fill-rule="evenodd">
        <g id="Large" transform="translate(-288.000000, -137.000000)">
            <g id="Group-3" transform="translate(288.000000, 137.000351)">
                <g id="Group-2" transform="translate(454.000000, 0.000000)" fill-rule="nonzero">
                    <g id="rubber-duck" transform="translate(129.500000, 212.499649) scale(-1, 1) translate(-129.500000, -212.499649) translate(0.000000, 74.999649)">
                        <path d="M224.902973,127.744583 C222.488107,124.406988 222.282437,119.988729 224.245154,116.366466 C230.348101,105.104902 233.789164,92.1890414 233.723651,78.4648321 C233.516371,34.8419128 197.464145,-0.55679344 153.853716,0.00663390809 C110.795855,0.563078839 76.0624882,35.6486505 76.0624882,78.8477908 C76.0624882,96.3323003 81.7519491,112.486928 91.3808044,125.561235 C95.5441258,131.214845 95.2541486,139.042671 90.5522213,144.256926 C83.4118003,152.174449 68.0333407,157.311897 35.4592307,135.514402 C31.8871407,133.124267 27.6932106,131.827686 23.3956405,131.827686 L23.3956405,131.827686 C12.6842035,131.827686 3.6165078,139.684517 2.03613185,150.28114 C-3.73441523,188.963731 -4.46956123,275 103.168916,275 L141.340124,275 C242.2957,275 269.186793,188.955674 224.902973,127.744583 Z" id="Path" fill="#FFD740"></path>
                        <g id="Group" transform="translate(0.000000, 0.000280)" fill="#FFB641">
                            <path d="M90.5516843,144.25772 C88.4412944,146.597904 85.6102574,148.694778 81.8287394,149.925294 C94.9684673,153.08457 102.674881,149.216848 107.147511,144.25772 C111.849976,139.043466 112.139416,131.216176 107.976094,125.56203 C98.3477761,112.487722 92.6577783,96.3325578 92.6577783,78.8480483 C92.6577783,38.117461 123.536595,4.60561875 163.155004,0.440875508 C160.10004,0.118072995 156.997284,-0.033928854 153.852642,0.0063543215 C110.794781,0.562799252 76.0614143,35.6483709 76.0614143,78.8475112 C76.0614143,96.3320207 81.7508751,112.486648 91.3797305,125.561493 C95.5435888,131.215639 95.2536116,139.042929 90.5516843,144.25772 Z" id="Path"></path>
                            <path d="M18.6314219,150.280861 C19.77898,142.591071 24.8702285,136.347179 31.6707318,133.49889 C29.0577146,132.412855 26.2519164,131.828481 23.3945666,131.828481 L23.3945666,131.828481 C12.6831295,131.828481 3.61543381,139.685311 2.03505786,150.281935 C-3.73441523,188.963451 -4.46956123,274.99972 103.168916,274.99972 L119.764743,274.99972 C12.1262658,274.99972 12.8614118,188.963451 18.6314219,150.280861 Z" id="Path"></path>
                            <path d="M35.2669865,184.945876 C30.5596894,189.595091 29.7482901,196.906219 33.3348789,202.465835 C43.8084272,218.701029 70.0390166,248.809211 120.527813,248.809211 C151.273992,248.809211 183.780978,229.575875 189.834521,197.731756 C194.833944,171.431676 179.499518,139.283017 149.382696,140.665535 C127.313817,141.67906 114.405534,160.761469 95.7557018,169.584021 C82.6541005,175.782259 68.4527337,179.601641 54.0381799,181.028203 C47.1775332,181.707109 40.791053,179.489923 35.2669865,184.945876 Z" id="Path"></path>
                        </g>
                        <path d="M200.594825,59.5295911 C198.714269,59.5295911 197.010921,58.242678 196.560382,56.3332554 L194.565446,47.8845308 C194.038654,45.6539171 195.419805,43.4184694 197.649408,42.8921025 C199.879011,42.3662728 202.11452,43.746643 202.640775,45.9767196 L204.635711,54.4254442 C205.162503,56.6560579 203.781353,58.8915056 201.55175,59.4178725 C201.231701,59.4930677 200.910578,59.5295911 200.594825,59.5295911 Z" id="Path" fill="#38484A"></path>
                        <path d="M221.657912,37.0574874 C221.657912,37.0574874 223.375222,61.6742674 211.974284,72.8241133 C200.573345,83.9739591 219.574909,101.459543 242.123862,84.9874838 C245.363015,82.6215187 248.644591,81.1181505 251.888577,80.2781121 C256.064786,79.1974487 259,75.4618556 259,71.1477961 L259,71.1477961 C259,66.9991661 256.298379,63.3076159 252.320858,62.1318843 C249.676158,61.3498536 246.317255,60.8831058 242.37786,61.4202148 C242.37786,61.4202148 256.013771,49.5296956 252.644665,35.7716484 C251.556177,31.3243859 246.278054,29.4735082 242.52983,32.1021197 C237.683451,35.4998713 230.161763,39.0823884 221.657912,37.0574874 Z" id="Path" fill="#FFB641"></path>
                    </g>
                    <g id="graduate-cap" transform="translate(140.375054, 91.569874) rotate(28.000000) translate(-140.375054, -91.569874) translate(50.018698, 35.903904)" fill="#1A2B63">
                        <path d="M180.712714,80.82079 C180.712714,78.1316333 179.125769,75.884996 176.867643,74.7730241 L176.867643,33.0570548 C177.37956,32.8641617 177.698087,32.381929 177.692399,31.8429629 C177.692399,31.3039969 177.339745,30.8274375 176.844891,30.6515644 L90.5526287,0.293594643 C89.4491617,-0.097864881 88.243311,-0.097864881 87.134156,0.293594643 L0.853269835,30.6572377 C0.347040099,30.8331108 0.00576162465,31.3096703 3.32041875e-14,31.8486363 C-0.00561432448,32.3876023 0.318600226,32.869835 0.819141987,33.0627281 L86.9805807,66.5126608 C88.1807433,66.9722002 89.5060414,66.9722002 90.706204,66.5126608 L170.918021,35.354752 L170.918021,74.7673507 C168.665583,75.8736494 167.078639,78.1373066 167.078639,80.8094434 C167.078639,83.60072 168.785031,86.0232304 171.225172,87.0614491 C168.785031,91.8667566 167.078639,101.726998 167.078639,104.540968 C167.078639,108.291037 170.133081,111.33194 173.892832,111.33194 C177.646895,111.33194 180.701338,108.291037 180.701338,104.540968 C180.701338,101.726998 178.989257,91.8667566 176.554804,87.0614491 C179.000633,86.034577 180.712714,83.6120666 180.712714,80.82079 Z" id="Path"></path>
                        <path d="M29.5937154,42.6155787 C29.5993787,52.1989275 29.605042,63.477444 29.605042,65.2686714 C29.605042,83.1131379 56.5225752,97.6407262 90.3719537,98.5504662 C124.215669,97.6407262 151.133202,83.1300896 151.133202,65.2686714 C151.133202,63.4887451 151.133202,52.204578 151.144529,42.6155787 L92.2125172,65.5059948 C91.0175668,65.9693407 89.6980243,65.9693407 88.5030739,65.5059948 L29.5937154,42.6155787 Z" id="Path"></path>
                    </g>
                </g>
                <text id="POSTDUCK" font-family="ClashDisplayVariable-Bold, Clash Display Variable" font-size="200" font-weight="bold" fill="#212121">
                    <tspan x="0" y="547.999649">POSTDUCK</tspan>
                </text>
            </g>
        </g>
    </g>
</svg>